<svg width="351" height="306" viewBox="0 0 351 306" fill="none" xmlns="http://www.w3.org/2000/svg">
<rect x="15" y="136" width="113" height="91" fill="#EABE7B"/>
<path d="M115 117H350V241.633L241.462 287L115 241.633V117Z" fill="#EABE7B"/>
<path d="M350.661 141.467V180.805C350.661 213.39 297.817 239.812 232.647 239.812C167.478 239.812 114.634 213.39 114.634 180.805V141.467C114.634 174.052 167.478 200.474 232.647 200.474C297.817 200.474 350.661 174.052 350.661 141.467ZM114.634 207.03C114.634 239.615 167.478 266.037 232.647 266.037C297.817 266.037 350.661 239.615 350.661 207.03V246.368C350.661 278.953 297.817 305.375 232.647 305.375C167.478 305.375 114.634 278.953 114.634 246.368V207.03ZM232.647 174.249C167.478 174.249 114.634 147.827 114.634 115.242C114.634 82.6573 167.478 56.2354 232.647 56.2354C297.817 56.2354 350.661 82.6573 350.661 115.242C350.661 147.827 297.817 174.249 232.647 174.249Z" fill="#585858"/>
<path d="M7.28478 104.901H138.411C140.343 104.901 142.196 105.668 143.562 107.035C144.928 108.401 145.696 110.254 145.696 112.186V228.742C145.696 230.674 144.928 232.527 143.562 233.893C142.196 235.259 140.343 236.027 138.411 236.027H7.28478C5.35274 236.027 3.49982 235.259 2.13366 233.893C0.767501 232.527 0 230.674 0 228.742V112.186C0 110.254 0.767501 108.401 2.13366 107.035C3.49982 105.668 5.35274 104.901 7.28478 104.901V104.901ZM72.8478 192.318V206.888H116.556V192.318H72.8478ZM46.7246 170.464L26.1232 191.065L36.4239 201.373L67.3332 170.464L36.4239 139.555L26.1232 149.863L46.7246 170.464Z" fill="#6F6868"/>
<path d="M85.6752 107.244V80.7905C85.6752 77.9462 84.5453 75.2184 82.5341 73.2072C80.5229 71.196 77.7951 70.0661 74.9508 70.0661H71.376V58.6267H74.9508C76.3591 58.6267 77.7537 58.3493 79.0548 57.8104C80.356 57.2714 81.5382 56.4815 82.5341 55.4856C83.5299 54.4898 84.3199 53.3075 84.8588 52.0064C85.3978 50.7052 85.6752 49.3107 85.6752 47.9023V21.4488C85.6752 15.7602 87.935 10.3046 91.9574 6.28221C95.9798 2.25978 101.435 0 107.124 0H114.274V14.2992H107.124C105.228 14.2992 103.409 15.0525 102.068 16.3933C100.728 17.7341 99.9744 19.5526 99.9744 21.4488V50.7622C99.9751 53.7722 99.026 56.7057 97.2621 59.1449C95.4982 61.584 93.0096 63.4042 90.1508 64.3464C93.0096 65.2885 95.4982 67.1088 97.2621 69.5479C99.026 71.987 99.9751 74.9206 99.9744 77.9306V107.244C99.9744 109.14 100.728 110.959 102.068 112.3C103.409 113.64 105.228 114.394 107.124 114.394H114.274V128.693H107.124C101.435 128.693 95.9798 126.433 91.9574 122.411C87.935 118.388 85.6752 112.933 85.6752 107.244V107.244ZM200.069 80.7905V107.244C200.069 112.933 197.809 118.388 193.787 122.411C189.764 126.433 184.309 128.693 178.62 128.693H171.47V114.394H178.62C180.516 114.394 182.335 113.64 183.676 112.3C185.016 110.959 185.77 109.14 185.77 107.244V77.9306C185.769 74.9206 186.718 71.987 188.482 69.5479C190.246 67.1088 192.734 65.2885 195.593 64.3464C192.734 63.4042 190.246 61.584 188.482 59.1449C186.718 56.7057 185.769 53.7722 185.77 50.7622V21.4488C185.77 19.5526 185.016 17.7341 183.676 16.3933C182.335 15.0525 180.516 14.2992 178.62 14.2992H171.47V0H178.62C184.309 0 189.764 2.25978 193.787 6.28221C197.809 10.3046 200.069 15.7602 200.069 21.4488V47.9023C200.069 50.7466 201.199 53.4744 203.21 55.4856C205.221 57.4968 207.949 58.6267 210.793 58.6267H214.368V70.0661H210.793C207.949 70.0661 205.221 71.196 203.21 73.2072C201.199 75.2184 200.069 77.9462 200.069 80.7905V80.7905Z" fill="#807E7E"/>
</svg>
