<svg width="383" height="309" viewBox="0 0 383 309" fill="none" xmlns="http://www.w3.org/2000/svg">
<path d="M264.554 234.056L277.321 204.267C289.378 203.557 314.061 202.139 316.33 202.139C319.167 202.139 322.713 186.535 324.132 184.407C325.267 182.705 341.627 176.606 349.665 173.769L370.234 186.535C365.978 194.101 357.184 209.657 356.049 211.359C354.63 213.487 344.701 231.219 344.701 234.056C344.701 236.325 340.445 268.573 338.317 284.413L313.493 280.867L271.647 265.263L264.554 234.056Z" fill="#887252"/>
<rect x="42.5557" y="90.7856" width="75.1815" height="70.926" fill="#EABE7B"/>
<rect opacity="0.8" x="110.645" y="45.3926" width="72.3445" height="66.6704" fill="#EABE7B"/>
<rect opacity="0.5" x="175.896" y="78.0186" width="75.1815" height="75.1815" fill="#EABE7B"/>
<path d="M147.146 0C228.401 0 294.293 58.5348 294.293 130.798C294.281 152.476 285.663 173.262 270.334 188.589C255.004 203.917 234.216 212.53 212.538 212.538H183.609C170.042 212.538 159.08 223.501 159.08 237.067C159.08 243.277 161.537 249.001 165.289 253.254C169.218 257.668 171.676 263.392 171.676 269.763C171.676 283.345 160.39 294.293 147.146 294.293C65.8921 294.293 0 228.401 0 147.146C0 65.8921 65.8921 0 147.146 0ZM80.9305 147.146C86.7843 147.146 92.3984 144.821 96.5377 140.682C100.677 136.542 103.002 130.928 103.002 125.074C103.002 119.221 100.677 113.606 96.5377 109.467C92.3984 105.328 86.7843 103.002 80.9305 103.002C75.0766 103.002 69.4626 105.328 65.3233 109.467C61.184 113.606 58.8585 119.221 58.8585 125.074C58.8585 130.928 61.184 136.542 65.3233 140.682C69.4626 144.821 75.0766 147.146 80.9305 147.146ZM213.362 147.146C219.216 147.146 224.83 144.821 228.969 140.682C233.109 136.542 235.434 130.928 235.434 125.074C235.434 119.221 233.109 113.606 228.969 109.467C224.83 105.328 219.216 103.002 213.362 103.002C207.508 103.002 201.894 105.328 197.755 109.467C193.616 113.606 191.29 119.221 191.29 125.074C191.29 130.928 193.616 136.542 197.755 140.682C201.894 144.821 207.508 147.146 213.362 147.146ZM147.146 103.002C153 103.002 158.614 100.677 162.754 96.5377C166.893 92.3984 169.218 86.7843 169.218 80.9305C169.218 75.0766 166.893 69.4626 162.754 65.3233C158.614 61.184 153 58.8585 147.146 58.8585C141.293 58.8585 135.678 61.184 131.539 65.3233C127.4 69.4626 125.074 75.0766 125.074 80.9305C125.074 86.7843 127.4 92.3984 131.539 96.5377C135.678 100.677 141.293 103.002 147.146 103.002Z" fill="#585858"/>
<path d="M329.997 286.694C326.504 297.173 287.301 296.009 283.032 296.009L234.125 288.246L235.29 273.885L246.934 236.235L266.341 208.288C274.622 202.984 289.552 194.626 283.032 203.631C274.881 214.887 270.611 261.464 298.945 263.017C327.28 264.569 333.49 276.214 329.997 286.694Z" fill="#EABE7B"/>
<path d="M325.466 220.279L324.359 219.172C319.142 214.142 312.73 210.523 305.728 208.656C283.067 202.591 261.303 215.43 255.122 238.512C254.786 239.759 254.607 241.162 254.311 244.678C253.11 259.255 249.68 270.129 240.279 281.16C257.897 288.082 278.772 292.962 294.643 292.962C304.078 292.95 313.245 289.829 320.728 284.083C328.21 278.337 333.59 270.284 336.036 261.173C337.956 254.024 337.992 246.499 336.139 239.333C334.287 232.166 330.61 225.602 325.466 220.279V220.279ZM308.581 193.292L347.082 163.35C348.581 162.186 350.453 161.608 352.347 161.726C354.242 161.844 356.028 162.648 357.371 163.989L380.718 187.328C382.061 188.672 382.867 190.46 382.985 192.356C383.103 194.252 382.524 196.126 381.357 197.626L351.424 236.119C353.534 244.728 353.661 253.704 351.794 262.369C349.928 271.034 346.116 279.162 340.648 286.139C335.18 293.115 328.198 298.758 320.23 302.641C312.262 306.523 303.515 308.545 294.651 308.552C267.344 308.552 232.266 296.844 212.778 285.151C243.803 261.765 236.53 247.656 240.061 234.482C248.308 203.691 277.806 185.707 308.573 193.292H308.581ZM335.186 207.939C335.693 208.43 336.2 208.937 336.691 209.451L345.538 218.291L364.832 193.487L351.221 179.876L326.417 199.169L335.186 207.939V207.939Z" fill="#585858"/>
</svg>
