<svg width="446" height="305" viewBox="0 0 446 305" fill="none" xmlns="http://www.w3.org/2000/svg">
<path d="M365 21H50V230H365V21Z" fill="url(#paint0_linear)"/>
<path d="M354.661 248.263C374.168 248.263 389.95 232.303 389.95 212.797L390.128 35.4661C390.128 15.9598 374.168 0 354.661 0H70.9323C51.4259 0 35.4661 15.9598 35.4661 35.4661V212.797C35.4661 232.303 51.4259 248.263 70.9323 248.263H0V283.729H425.594V248.263H354.661ZM70.9323 35.4661H354.661V212.797H70.9323V35.4661Z" fill="#585858"/>
<rect x="360" y="265" width="52" height="32" fill="#EABE7B"/>
<path d="M437 122H332V258H437V122Z" fill="url(#paint1_linear)"/>
<path d="M422.669 100H348.255C335.418 100 325 110.418 325 123.255V281.386C325 294.223 335.418 304.641 348.255 304.641H422.669C435.506 304.641 445.924 294.223 445.924 281.386V123.255C445.924 110.418 435.506 100 422.669 100ZM385.462 295.339C377.741 295.339 371.509 289.107 371.509 281.386C371.509 273.665 377.741 267.433 385.462 267.433C393.183 267.433 399.415 273.665 399.415 281.386C399.415 289.107 393.183 295.339 385.462 295.339ZM427.32 258.131H343.604V127.906H427.32V258.131Z" fill="#585858"/>
<defs>
<linearGradient id="paint0_linear" x1="56" y1="27" x2="449" y2="248.5" gradientUnits="userSpaceOnUse">
<stop offset="0.11445" stop-color="#EABE7B"/>
<stop offset="1" stop-color="#E7D1AF"/>
</linearGradient>
<linearGradient id="paint1_linear" x1="338.5" y1="122" x2="437" y2="270" gradientUnits="userSpaceOnUse">
<stop stop-color="#EABE7B"/>
<stop offset="1" stop-color="#E9C690"/>
</linearGradient>
</defs>
</svg>
