<svg width="380" height="304" viewBox="0 0 380 304" fill="none" xmlns="http://www.w3.org/2000/svg">
<rect x="1" y="141" width="377" height="90" fill="#EABE7B"/>
<path d="M303.392 227.544H265.468V207L113.772 208.582V227.544H75.8479V208.582H0V303.392H379.24V208.582H303.392V227.544Z" fill="#585858"/>
<path d="M341.316 75.8479H284.43V37.924C284.43 17.0658 267.364 0 246.506 0H132.734C111.876 0 94.8099 17.0658 94.8099 37.924V75.8479H37.924C17.0658 75.8479 0 92.9137 0 113.772V189.62H75.8479V151.696H113.772V189.62H265.468V151.696H303.392V189.62H379.24V113.772C379.24 92.9137 362.174 75.8479 341.316 75.8479ZM246.506 75.8479H132.734V37.924H246.506V75.8479Z" fill="#585858"/>
</svg>
