<svg width="366" height="361" viewBox="0 0 366 361" fill="none" xmlns="http://www.w3.org/2000/svg">
<path d="M157 187.5C157 271.5 157 272 166 282C171 287 171 287 168.5 290C152.5 304.5 135.5 318.5 118 331C109 337.5 97 346 91.5 350.5C88 353.5 84 356 79.5 358C73 355.5 66 352.5 60 349C34 336 25 329 21 319C19.5 315.5 18.5 304.5 17.5 276.5C16 240 15 228 12.5 223C10.5 221 8.5 219.5 6 218C4 217 2 215.5 0.5 214C3.53903e-07 212.5 8 205.5 36.5 181.5C39.5 179 44.5 180 50 185C57.5 191.5 58.5 197 60.5 245.5C62 290 62 290 74.5 299C85 305.5 95.5 311.5 107 316C113.5 318 113.5 315 113.5 185.5L113 65.5L117.5 62C119.5 60 123 57 125 55.5L128 52.5L120 55C113 57.5 105.5 58.5 98 57.5C87 57 75.5 54.5 65 50.5C48.5 44.5 45 44 34.5 44C27.5 43 20.5 44.5 14.5 47.5C6.5 51 3.5 51 4.5 47.5C11 41 17.5 35 25 29C48.5 9.49998 55 5.99999 71 5.99999C79.5 6.49999 85 7.49997 100.5 12.5C133.5 23.5 145.5 24 164 14.5C170 11.5 172.5 11 173.5 12C175 13.5 173 16 165 23.5L155 33L156 72.5C156.5 94.5 157 146 157 187.5ZM364.465 58.5C364.965 63.5 365.465 112.5 365.465 171.5C364.965 287 365.465 279.5 355.965 298C349.465 309.5 338.965 321 317.965 338.5C293.465 359 289.965 360.5 282.465 356C280.465 354.5 271.465 346.5 261.965 337.5C255.465 331.5 248.465 325.5 241.465 320C238.965 319 237.465 319.5 232.965 324.5C224.965 332 194.965 357 193.965 357C190.965 357 191.965 352.5 197.465 343C208.965 322.5 208.465 334 208.465 189C208.465 87 207.965 60 206.465 55C204.465 50 200.965 45 196.965 41C190.465 34.5 188.965 33 190.465 31.5C202.965 20.5 215.965 9.99997 229.465 -1.90735e-05C233.465 2.49998 236.965 4.99998 239.465 8.49999C246.965 15 250.965 24.5 250.465 34.5C250.465 42 251.965 43 255.965 40C275.965 23.5 305.965 -1.90735e-05 306.965 -1.90735e-05C312.465 2.49998 317.965 4.99998 323.465 8.49999C349.965 23.5 361.965 37.5 364.465 58.5ZM320.465 310.5C322.465 304.5 323.465 103 321.465 89.5C318.965 71.5 310.465 60.5 288.965 47.5C283.465 44.5 277.965 41.5 272.465 39C268.465 41 264.465 43.5 260.965 46.5L251.965 54V167.5C251.965 260.5 251.465 282.5 249.965 289C249.465 292 248.465 294.5 248.465 297.5C251.965 295 254.965 292.5 257.965 289.5C272.965 277 276.965 278 299.965 300.5C305.465 306 310.965 310.5 316.965 315C317.965 315 319.465 313 320.465 310.5Z" fill="#F2F2F2"/>
</svg>
